<svg id="svg" version="1.1" xmlns="http://www.w3.org/2000/svg" xmlns:xlink="http://www.w3.org/1999/xlink" width="400" height="400" viewBox="0, 0, 400,400"><g id="svgg"><path id="path0" d="M0.000 34.800 C 0.000 64.152,0.087 69.600,0.553 69.600 C 0.951 69.600,1.187 68.732,1.396 66.500 C 1.555 64.795,1.969 62.860,2.315 62.200 C 2.661 61.540,3.080 60.028,3.246 58.840 C 3.412 57.652,3.721 56.572,3.932 56.440 C 4.144 56.308,4.534 55.390,4.798 54.400 C 5.063 53.410,5.502 52.150,5.773 51.600 C 6.045 51.050,6.721 49.610,7.275 48.400 C 8.606 45.498,9.112 44.443,9.866 43.000 C 10.939 40.948,14.103 35.851,14.972 34.774 C 15.427 34.210,16.160 33.238,16.600 32.615 C 19.047 29.146,28.721 19.459,32.675 16.518 C 35.964 14.072,42.367 10.007,42.937 10.002 C 43.122 10.001,43.731 9.640,44.291 9.200 C 44.850 8.760,45.571 8.400,45.892 8.400 C 46.214 8.400,46.965 8.052,47.563 7.627 C 48.160 7.201,49.178 6.723,49.824 6.563 C 50.471 6.404,51.401 6.014,51.892 5.696 C 52.382 5.378,53.548 4.947,54.482 4.737 C 55.416 4.527,56.285 4.186,56.413 3.978 C 56.542 3.771,57.715 3.404,59.021 3.162 C 60.327 2.921,61.757 2.525,62.198 2.284 C 62.639 2.042,64.426 1.654,66.168 1.422 C 68.018 1.176,69.405 0.792,69.501 0.500 C 69.633 0.103,62.521 0.000,34.833 0.000 L 0.000 0.000 0.000 34.800 M330.400 0.357 C 330.400 0.885,331.154 1.090,334.230 1.402 C 335.754 1.557,337.377 1.920,337.837 2.210 C 338.298 2.499,339.701 2.926,340.955 3.158 C 342.209 3.390,343.627 3.854,344.107 4.190 C 344.586 4.525,345.433 4.801,345.989 4.801 C 346.545 4.802,347.544 5.135,348.210 5.541 C 348.875 5.946,350.075 6.495,350.878 6.760 C 351.680 7.024,352.552 7.502,352.817 7.820 C 353.082 8.139,353.570 8.400,353.902 8.400 C 354.570 8.400,360.896 11.927,363.400 13.696 C 364.280 14.318,365.450 15.127,366.000 15.495 C 369.422 17.783,377.600 25.170,377.600 25.973 C 377.600 26.178,377.960 26.460,378.400 26.600 C 378.840 26.740,379.200 27.103,379.200 27.407 C 379.200 27.711,379.454 28.104,379.764 28.280 C 380.540 28.721,383.850 32.915,386.047 36.242 C 389.125 40.905,389.520 41.559,390.902 44.285 C 391.213 44.898,391.947 46.327,392.534 47.459 C 393.120 48.591,393.600 49.896,393.600 50.359 C 393.600 50.822,393.751 51.200,393.936 51.200 C 394.359 51.200,395.200 53.012,395.200 53.925 C 395.200 54.303,395.565 55.292,396.010 56.123 C 396.456 56.954,396.934 58.482,397.073 59.517 C 397.212 60.553,397.554 61.760,397.832 62.200 C 398.110 62.640,398.450 63.900,398.586 65.000 C 399.808 74.819,400.000 70.713,400.000 34.800 L 400.000 0.000 365.200 0.000 C 345.046 0.000,330.400 0.150,330.400 0.357 M103.000 54.816 C 101.680 55.241,100.220 55.591,99.756 55.594 C 98.506 55.603,92.377 58.850,91.252 60.100 C 90.906 60.485,90.491 60.800,90.330 60.800 C 90.004 60.800,87.828 63.017,86.600 64.600 C 86.160 65.167,85.401 66.094,84.913 66.660 C 84.425 67.226,83.909 68.074,83.765 68.545 C 83.622 69.015,83.288 69.670,83.022 70.000 C 82.756 70.330,82.307 71.408,82.024 72.397 C 81.741 73.385,81.260 74.550,80.955 74.986 C 79.857 76.553,80.188 89.066,81.396 91.660 C 81.944 92.837,82.394 94.205,82.396 94.700 C 82.398 95.195,82.547 95.600,82.726 95.600 C 82.905 95.600,83.371 96.269,83.761 97.088 C 85.127 99.953,90.959 106.400,92.184 106.400 C 92.418 106.400,92.873 106.685,95.800 108.663 C 96.460 109.109,97.720 109.606,98.600 109.767 C 99.480 109.928,100.650 110.361,101.200 110.730 C 102.674 111.718,114.126 111.718,115.600 110.730 C 116.150 110.361,117.320 109.928,118.200 109.767 C 119.080 109.606,120.295 109.143,120.900 108.737 C 121.505 108.332,122.533 107.640,123.184 107.200 C 123.835 106.760,124.548 106.400,124.769 106.400 C 125.376 106.400,131.106 100.526,131.399 99.604 C 131.539 99.162,131.800 98.800,131.978 98.800 C 132.157 98.800,132.538 98.215,132.824 97.500 C 133.111 96.785,133.673 95.771,134.073 95.246 C 134.473 94.721,134.800 93.994,134.800 93.631 C 134.800 93.267,135.176 92.256,135.635 91.385 C 136.757 89.256,136.971 76.101,135.904 74.905 C 135.558 74.517,135.061 73.390,134.800 72.400 C 134.539 71.410,134.094 70.330,133.810 70.000 C 133.527 69.670,133.178 69.016,133.035 68.548 C 132.893 68.079,132.467 67.327,132.088 66.878 C 131.710 66.428,130.950 65.488,130.400 64.789 C 124.077 56.744,111.373 52.120,103.000 54.816 M84.185 134.100 C 84.080 134.375,84.041 175.419,84.097 225.310 L 84.200 316.019 108.323 316.019 C 121.590 316.019,132.615 315.914,132.823 315.786 C 133.428 315.412,133.326 134.686,132.720 134.080 C 132.008 133.368,84.456 133.387,84.185 134.100 M167.683 134.077 C 166.964 134.796,166.980 315.349,167.700 315.851 C 167.975 316.043,179.027 316.152,192.291 316.094 L 216.382 315.988 216.491 264.894 C 216.591 218.253,216.658 213.695,217.261 212.595 C 217.625 211.932,218.049 210.492,218.203 209.395 C 218.460 207.557,219.014 206.102,221.318 201.200 C 222.564 198.551,225.289 194.691,227.245 192.806 C 230.406 189.760,231.923 188.452,233.000 187.845 C 233.660 187.473,234.920 186.735,235.800 186.205 C 238.018 184.869,239.120 184.400,240.042 184.400 C 240.477 184.400,241.362 184.008,242.010 183.529 C 243.796 182.209,257.244 182.167,260.000 183.473 C 260.990 183.942,262.250 184.457,262.800 184.618 C 263.350 184.779,264.229 185.245,264.754 185.655 C 265.279 186.065,265.925 186.400,266.190 186.400 C 269.742 186.400,279.650 199.196,281.239 205.837 C 281.498 206.917,282.089 208.880,282.554 210.200 C 283.394 212.584,283.401 212.954,283.600 264.200 L 283.800 315.800 307.600 316.000 C 320.690 316.110,331.760 316.057,332.200 315.881 C 333.158 315.500,333.313 205.461,332.369 196.000 C 331.387 186.166,331.224 184.931,330.622 182.813 C 330.280 181.610,330.000 180.230,330.000 179.746 C 330.000 179.262,329.640 178.026,329.200 177.000 C 328.760 175.974,328.400 174.709,328.400 174.190 C 328.400 173.672,328.233 173.144,328.029 173.018 C 327.825 172.892,327.443 172.116,327.179 171.294 C 326.638 169.611,324.950 165.712,324.368 164.800 C 324.157 164.470,323.728 163.646,323.415 162.968 C 323.102 162.291,322.566 161.504,322.223 161.219 C 321.880 160.935,321.600 160.453,321.600 160.148 C 321.600 159.844,321.150 159.203,320.600 158.725 C 320.050 158.247,319.600 157.692,319.600 157.491 C 319.600 156.484,312.477 148.871,309.400 146.591 C 308.520 145.938,307.710 145.305,307.600 145.184 C 307.179 144.721,301.844 141.502,300.260 140.755 C 299.347 140.325,298.150 139.712,297.600 139.392 C 297.050 139.073,296.254 138.809,295.831 138.806 C 295.409 138.803,294.779 138.548,294.431 138.240 C 294.084 137.933,292.810 137.414,291.600 137.087 C 290.390 136.760,288.860 136.306,288.200 136.078 C 282.996 134.277,267.933 133.511,262.683 134.780 C 260.817 135.231,258.617 135.600,257.794 135.600 C 256.264 135.600,250.651 137.238,248.738 138.242 C 248.154 138.549,247.350 138.800,246.950 138.800 C 246.550 138.800,244.189 139.835,241.702 141.100 C 235.139 144.439,236.069 143.868,230.180 148.177 C 227.696 149.994,222.112 155.621,220.899 157.530 C 220.525 158.119,220.100 158.690,219.954 158.800 C 219.809 158.910,219.409 159.675,219.065 160.500 C 218.438 162.006,217.527 162.432,216.924 161.500 C 216.746 161.225,216.510 154.880,216.400 147.400 L 216.200 133.800 192.183 133.697 C 173.836 133.618,168.052 133.708,167.683 134.077 M0.000 365.200 L 0.000 400.000 34.833 400.000 C 62.522 400.000,69.633 399.897,69.501 399.500 C 69.399 399.192,68.137 398.890,66.220 398.715 C 64.506 398.558,62.677 398.150,62.155 397.807 C 61.633 397.465,60.350 397.077,59.303 396.945 C 58.256 396.813,57.040 396.481,56.600 396.209 C 56.160 395.937,54.765 395.413,53.500 395.046 C 52.235 394.678,51.200 394.203,51.200 393.989 C 51.200 393.775,50.853 393.600,50.428 393.600 C 49.699 393.600,42.796 390.239,40.200 388.620 C 35.206 385.505,30.422 381.955,27.588 379.261 C 26.511 378.238,25.038 376.843,24.315 376.163 C 18.873 371.044,8.400 356.509,8.400 354.075 C 8.400 353.773,8.045 353.075,7.611 352.523 C 7.176 351.970,6.706 350.907,6.566 350.159 C 6.426 349.412,6.158 348.800,5.971 348.800 C 5.784 348.800,5.438 348.035,5.202 347.100 C 4.967 346.165,4.420 344.660,3.987 343.756 C 3.554 342.852,3.200 341.627,3.200 341.034 C 3.200 340.441,2.850 339.189,2.423 338.251 C 1.996 337.313,1.521 335.163,1.368 333.473 C 1.170 331.283,0.933 330.400,0.545 330.400 C 0.089 330.400,0.000 336.100,0.000 365.200 M399.036 331.700 C 398.925 332.415,398.723 333.900,398.586 335.000 C 398.450 336.100,398.110 337.360,397.832 337.800 C 397.554 338.240,397.212 339.447,397.073 340.483 C 396.934 341.518,396.456 343.046,396.010 343.877 C 395.565 344.708,395.200 345.697,395.200 346.075 C 395.200 346.932,394.369 348.800,393.988 348.800 C 393.832 348.800,393.602 349.433,393.476 350.206 C 393.351 350.980,392.877 352.084,392.424 352.660 C 391.971 353.236,391.600 353.956,391.600 354.260 C 391.600 354.769,389.323 359.144,388.820 359.600 C 388.699 359.710,388.254 360.430,387.830 361.200 C 387.407 361.970,386.957 362.690,386.830 362.800 C 386.704 362.910,386.420 363.299,386.200 363.664 C 382.715 369.453,374.292 378.377,367.400 383.582 C 366.520 384.247,365.618 384.940,365.395 385.122 C 364.593 385.779,360.378 388.400,360.124 388.400 C 359.980 388.400,359.579 388.644,359.231 388.942 C 358.599 389.484,356.692 390.478,352.200 392.606 C 350.880 393.231,349.145 394.070,348.346 394.471 C 347.546 394.872,346.553 395.200,346.140 395.200 C 345.726 395.200,344.761 395.532,343.994 395.939 C 343.227 396.345,341.744 396.792,340.697 396.931 C 339.650 397.071,338.387 397.452,337.889 397.778 C 337.391 398.105,335.908 398.479,334.592 398.611 C 331.282 398.943,330.400 399.152,330.400 399.608 C 330.400 399.861,342.717 400.000,365.200 400.000 L 400.000 400.000 400.000 365.200 C 400.000 333.336,399.809 326.689,399.036 331.700 " stroke="none" fill="#fafafa" fill-rule="evenodd"></path><path id="path1" d="M76.598 0.607 C 76.116 1.343,70.841 2.400,67.654 2.400 C 66.227 2.400,65.041 2.636,64.475 3.032 C 63.979 3.380,62.480 3.819,61.145 4.008 C 59.810 4.197,58.421 4.610,58.059 4.927 C 57.696 5.243,56.566 5.622,55.546 5.769 C 54.489 5.921,53.388 6.371,52.984 6.818 C 52.595 7.248,51.961 7.600,51.575 7.600 C 50.850 7.600,47.057 9.388,46.000 10.228 C 45.670 10.491,44.950 10.837,44.400 10.999 C 43.850 11.160,43.040 11.612,42.600 12.003 C 42.160 12.394,40.853 13.203,39.697 13.800 C 38.540 14.398,37.490 15.055,37.363 15.260 C 37.163 15.584,35.291 16.919,33.240 18.200 C 32.464 18.685,28.510 21.855,27.400 22.882 C 26.960 23.290,26.060 24.120,25.400 24.727 C 24.740 25.335,23.071 27.174,21.690 28.816 C 19.204 31.772,18.976 32.063,18.200 33.262 C 16.560 35.797,15.579 37.166,15.260 37.363 C 15.055 37.490,14.398 38.540,13.800 39.697 C 13.203 40.853,12.373 42.172,11.957 42.626 C 11.541 43.080,11.200 43.720,11.200 44.048 C 11.200 44.376,10.750 45.255,10.200 46.000 C 9.650 46.745,9.200 47.607,9.200 47.915 C 9.200 48.222,8.840 48.931,8.400 49.491 C 7.960 50.050,7.600 50.935,7.600 51.458 C 7.600 51.980,7.246 52.711,6.813 53.082 C 6.355 53.474,5.916 54.518,5.764 55.578 C 5.620 56.580,5.243 57.696,4.927 58.059 C 4.610 58.421,4.193 59.834,4.000 61.200 C 3.807 62.566,3.368 63.993,3.025 64.373 C 2.606 64.835,2.400 65.845,2.401 67.431 C 2.402 70.923,1.246 76.800,0.558 76.800 C 0.082 76.800,0.000 94.830,0.000 200.000 C 0.000 303.694,0.086 323.200,0.545 323.200 C 1.241 323.200,1.964 326.635,2.272 331.400 C 2.421 333.704,2.717 335.244,3.093 335.677 C 3.417 336.049,3.807 337.399,3.960 338.677 C 4.113 339.954,4.527 341.450,4.881 342.000 C 5.234 342.550,5.648 343.778,5.801 344.728 C 5.954 345.678,6.327 346.551,6.629 346.666 C 6.931 346.782,7.295 347.535,7.439 348.339 C 7.582 349.142,8.017 350.160,8.406 350.600 C 8.795 351.040,9.237 351.985,9.389 352.700 C 9.540 353.415,9.807 354.000,9.983 354.000 C 10.159 354.000,10.539 354.585,10.827 355.300 C 11.115 356.015,11.722 357.140,12.176 357.800 C 13.422 359.610,13.964 360.512,14.376 361.461 C 14.582 361.935,14.943 362.441,15.178 362.586 C 15.413 362.732,16.427 364.110,17.432 365.649 C 20.727 370.697,26.149 376.537,30.687 379.928 C 35.898 383.822,39.340 386.209,40.400 386.662 C 40.730 386.803,41.540 387.316,42.200 387.802 C 42.860 388.287,43.784 388.806,44.252 388.954 C 44.721 389.103,45.514 389.578,46.014 390.012 C 46.513 390.445,47.231 390.800,47.607 390.800 C 47.984 390.800,48.721 391.137,49.246 391.548 C 49.771 391.959,50.766 392.419,51.459 392.571 C 52.151 392.722,53.034 393.195,53.421 393.623 C 53.860 394.109,54.646 394.400,55.515 394.400 C 56.280 394.400,57.467 394.739,58.153 395.154 C 58.839 395.569,60.422 396.030,61.672 396.179 C 62.922 396.328,64.138 396.685,64.376 396.971 C 64.632 397.280,66.226 397.600,68.304 397.760 C 73.068 398.127,76.428 398.808,76.678 399.459 C 76.993 400.279,323.012 400.267,323.327 399.446 C 323.573 398.805,327.033 398.135,332.100 397.749 C 334.025 397.602,335.600 397.337,335.600 397.160 C 335.600 396.748,338.254 396.005,339.737 396.002 C 340.362 396.001,341.331 395.640,341.891 395.200 C 342.493 394.726,343.514 394.400,344.392 394.400 C 345.354 394.400,346.124 394.126,346.579 393.623 C 346.966 393.195,347.849 392.722,348.541 392.571 C 349.234 392.419,350.229 391.959,350.754 391.548 C 351.279 391.137,352.009 390.800,352.376 390.800 C 352.744 390.800,353.655 390.350,354.400 389.800 C 355.145 389.250,356.080 388.800,356.478 388.800 C 356.875 388.800,357.200 388.635,357.200 388.434 C 357.200 388.233,358.352 387.425,359.760 386.637 C 361.169 385.849,363.914 384.022,365.860 382.576 C 367.807 381.130,369.935 379.554,370.590 379.073 C 373.555 376.896,378.661 371.319,382.009 366.600 C 383.413 364.620,384.678 362.910,384.820 362.800 C 384.961 362.690,385.329 362.129,385.638 361.552 C 387.393 358.280,388.004 357.294,388.571 356.824 C 388.917 356.537,389.200 355.986,389.200 355.600 C 389.200 355.214,389.461 354.682,389.780 354.417 C 390.098 354.152,390.571 353.275,390.830 352.468 C 391.089 351.661,391.528 350.730,391.806 350.400 C 392.084 350.070,392.431 349.234,392.578 348.541 C 392.725 347.849,393.195 346.966,393.623 346.579 C 394.074 346.171,394.400 345.357,394.399 344.638 C 394.398 343.957,394.752 342.680,395.186 341.800 C 395.619 340.920,396.080 339.347,396.211 338.305 C 396.341 337.262,396.669 336.182,396.940 335.905 C 397.210 335.627,397.645 333.234,397.906 330.587 C 398.386 325.724,398.978 323.200,399.639 323.200 C 400.312 323.200,400.101 77.244,399.428 76.571 C 398.726 75.869,398.117 72.896,397.756 68.400 C 397.606 66.530,397.240 64.628,396.944 64.174 C 396.647 63.720,396.293 62.460,396.155 61.374 C 396.018 60.288,395.567 58.805,395.153 58.077 C 394.739 57.350,394.400 56.162,394.400 55.439 C 394.400 54.645,394.092 53.845,393.623 53.421 C 393.195 53.034,392.722 52.151,392.571 51.459 C 392.419 50.766,391.959 49.771,391.548 49.246 C 391.137 48.721,390.800 47.984,390.800 47.607 C 390.800 47.231,390.440 46.507,390.000 46.000 C 389.560 45.493,389.200 44.767,389.200 44.388 C 389.200 44.008,388.917 43.463,388.571 43.176 C 388.225 42.889,387.550 41.942,387.071 41.073 C 385.469 38.165,385.246 37.806,384.321 36.646 C 383.814 36.011,382.680 34.460,381.800 33.200 C 377.347 26.824,371.661 21.326,365.100 17.055 C 363.835 16.231,362.800 15.404,362.800 15.218 C 362.800 15.031,362.305 14.679,361.700 14.436 C 361.095 14.193,359.790 13.460,358.800 12.808 C 357.810 12.156,356.325 11.327,355.500 10.968 C 354.675 10.608,354.000 10.160,354.000 9.972 C 354.000 9.784,353.301 9.443,352.447 9.213 C 351.592 8.982,350.670 8.526,350.398 8.197 C 350.125 7.869,349.498 7.600,349.005 7.600 C 348.512 7.600,347.669 7.255,347.133 6.833 C 346.596 6.411,345.447 5.939,344.579 5.784 C 343.710 5.629,342.439 5.165,341.753 4.751 C 341.067 4.338,339.804 4.000,338.947 4.000 C 338.090 4.000,336.716 3.640,335.896 3.200 C 334.962 2.700,333.616 2.395,332.301 2.386 C 329.131 2.365,323.882 1.326,323.363 0.617 C 322.679 -0.318,77.211 -0.328,76.598 0.607 M114.559 53.181 C 115.416 53.379,116.231 53.727,116.371 53.952 C 116.510 54.178,117.429 54.479,118.412 54.621 C 119.395 54.763,120.653 55.196,121.208 55.584 C 121.762 55.971,122.636 56.421,123.149 56.584 C 125.081 57.197,131.600 62.639,131.600 63.638 C 131.600 63.803,132.025 64.447,132.545 65.069 C 133.065 65.691,133.627 66.650,133.795 67.200 C 133.962 67.750,134.437 68.522,134.850 68.916 C 135.262 69.309,135.600 70.050,135.600 70.562 C 135.600 71.073,135.950 71.937,136.378 72.481 C 136.885 73.125,137.291 74.573,137.542 76.635 C 137.755 78.376,138.106 80.475,138.322 81.300 C 138.580 82.284,138.580 83.316,138.322 84.300 C 138.105 85.125,137.766 87.224,137.568 88.963 C 137.371 90.703,136.954 92.413,136.642 92.763 C 136.330 93.114,135.871 94.165,135.622 95.100 C 135.373 96.035,135.016 96.800,134.828 96.800 C 134.640 96.800,134.202 97.513,133.853 98.384 C 132.868 100.847,127.104 107.200,125.855 107.200 C 125.510 107.200,125.047 107.539,124.825 107.954 C 124.603 108.369,123.936 108.830,123.342 108.979 C 122.749 109.128,121.820 109.598,121.278 110.025 C 120.736 110.451,119.859 110.800,119.330 110.800 C 118.801 110.800,117.842 111.188,117.200 111.663 C 115.418 112.980,101.372 112.973,99.588 111.654 C 98.952 111.184,98.010 110.800,97.494 110.800 C 96.978 110.800,95.945 110.350,95.200 109.800 C 94.455 109.250,93.637 108.800,93.383 108.800 C 93.130 108.800,92.507 108.440,92.000 108.000 C 91.493 107.560,90.934 107.200,90.759 107.200 C 90.584 107.200,89.940 106.735,89.327 106.168 C 88.715 105.600,88.029 105.015,87.804 104.868 C 86.882 104.265,83.200 99.648,83.200 99.095 C 83.200 98.766,82.931 98.275,82.602 98.002 C 82.273 97.728,81.789 96.761,81.526 95.853 C 81.263 94.944,80.723 93.771,80.324 93.246 C 79.820 92.582,79.600 91.594,79.600 89.996 C 79.600 88.734,79.330 86.935,79.000 86.000 C 78.294 83.998,78.222 81.480,78.838 80.329 C 79.079 79.878,79.414 77.997,79.583 76.147 C 79.776 74.034,80.121 72.528,80.514 72.093 C 80.857 71.712,81.268 70.860,81.427 70.200 C 81.586 69.540,82.050 68.522,82.458 67.938 C 82.866 67.354,83.200 66.694,83.200 66.471 C 83.200 65.826,87.428 60.844,88.974 59.670 C 92.633 56.888,93.369 56.400,93.901 56.400 C 94.216 56.400,94.931 56.040,95.491 55.600 C 96.050 55.160,97.069 54.799,97.754 54.798 C 98.439 54.796,99.540 54.505,100.200 54.151 C 100.860 53.797,101.850 53.364,102.400 53.188 C 103.786 52.746,112.659 52.740,114.559 53.181 M133.586 133.574 C 134.165 134.655,134.165 315.345,133.586 316.426 C 133.074 317.383,84.228 317.668,83.280 316.720 C 82.581 316.021,82.581 133.979,83.280 133.280 C 84.228 132.332,133.074 132.617,133.586 133.574 M217.076 133.300 C 217.254 133.575,217.490 139.740,217.600 147.000 C 217.714 154.509,217.942 159.855,218.130 159.400 C 219.154 156.912,220.904 154.726,225.350 150.380 C 229.264 146.553,229.307 146.516,232.585 144.225 C 237.173 141.018,245.079 137.242,248.984 136.391 C 250.075 136.154,251.200 135.766,251.485 135.529 C 251.770 135.293,253.465 134.952,255.251 134.772 C 257.037 134.592,259.152 134.119,259.949 133.722 C 262.097 132.653,281.853 132.637,284.001 133.702 C 284.771 134.084,286.714 134.562,288.317 134.763 C 289.921 134.964,291.458 135.316,291.733 135.544 C 292.008 135.772,293.063 136.145,294.078 136.373 C 295.892 136.779,302.801 139.964,305.655 141.710 C 309.276 143.925,315.330 149.344,317.800 152.583 C 318.240 153.159,319.005 154.101,319.500 154.674 C 319.995 155.248,320.400 155.962,320.400 156.261 C 320.400 156.560,320.850 157.197,321.400 157.675 C 321.950 158.153,322.400 158.773,322.400 159.052 C 322.400 159.332,322.650 159.704,322.955 159.880 C 323.507 160.199,324.576 162.052,325.850 164.900 C 326.219 165.725,326.666 166.400,326.843 166.400 C 327.019 166.400,327.282 167.032,327.427 167.803 C 327.572 168.575,328.002 169.610,328.384 170.103 C 328.765 170.597,329.187 171.697,329.322 172.550 C 329.456 173.402,329.857 174.421,330.213 174.814 C 330.568 175.207,331.002 176.490,331.177 177.664 C 331.351 178.839,331.764 180.430,332.094 181.200 C 332.424 181.970,332.809 183.899,332.949 185.486 C 333.089 187.074,333.470 189.396,333.796 190.647 C 334.622 193.819,334.735 316.341,333.912 316.863 C 332.972 317.459,283.362 317.277,282.862 316.675 C 282.554 316.304,282.393 301.368,282.313 265.775 C 282.211 220.509,282.135 215.257,281.557 213.988 C 281.203 213.211,280.788 211.563,280.633 210.325 C 280.478 209.087,280.003 207.390,279.576 206.553 C 279.149 205.716,278.800 204.646,278.800 204.177 C 278.800 203.707,278.440 202.907,278.000 202.400 C 277.560 201.893,277.200 201.181,277.200 200.819 C 277.200 200.457,276.390 199.047,275.400 197.686 C 274.410 196.326,273.600 195.072,273.600 194.899 C 273.600 193.992,266.111 187.200,265.111 187.200 C 264.779 187.200,264.070 186.856,263.536 186.435 C 263.001 186.015,261.512 185.476,260.227 185.239 C 258.942 185.001,257.652 184.609,257.361 184.367 C 256.330 183.512,246.146 183.789,243.234 184.752 C 241.823 185.218,240.267 185.600,239.777 185.600 C 239.287 185.600,238.795 185.836,238.684 186.124 C 238.574 186.413,237.763 186.864,236.883 187.128 C 236.003 187.392,235.180 187.876,235.054 188.204 C 234.928 188.532,234.579 188.800,234.279 188.800 C 232.593 188.800,222.400 200.723,222.400 202.696 C 222.400 203.014,222.040 203.731,221.600 204.291 C 221.160 204.850,220.799 205.599,220.798 205.954 C 220.796 206.309,220.509 207.140,220.160 207.800 C 219.811 208.460,219.364 210.117,219.167 211.482 C 218.970 212.848,218.539 214.738,218.210 215.682 C 217.692 217.171,217.611 223.963,217.606 266.526 C 217.602 299.614,217.465 315.905,217.186 316.426 C 216.651 317.427,167.609 317.637,166.302 316.644 C 165.211 315.817,165.206 134.187,166.297 133.359 C 167.298 132.599,216.586 132.542,217.076 133.300 " stroke="none" fill="#040404" fill-rule="evenodd"></path><path id="path2" d="M69.472 0.556 C 69.332 0.921,68.248 1.213,66.329 1.403 C 64.718 1.563,62.946 1.925,62.392 2.209 C 61.837 2.493,60.318 2.923,59.015 3.163 C 57.712 3.404,56.542 3.771,56.413 3.978 C 56.285 4.186,55.416 4.527,54.482 4.737 C 53.548 4.947,52.382 5.378,51.892 5.696 C 51.401 6.014,50.471 6.404,49.824 6.563 C 49.178 6.723,48.160 7.201,47.563 7.627 C 46.965 8.052,46.214 8.400,45.892 8.400 C 45.571 8.400,44.850 8.760,44.291 9.200 C 43.731 9.640,43.122 10.001,42.937 10.002 C 42.367 10.007,35.964 14.072,32.675 16.518 C 28.721 19.459,19.047 29.146,16.600 32.615 C 16.160 33.238,15.427 34.210,14.972 34.774 C 14.103 35.851,10.939 40.948,9.866 43.000 C 9.112 44.443,8.606 45.498,7.275 48.400 C 6.721 49.610,6.045 51.050,5.773 51.600 C 5.502 52.150,5.063 53.410,4.798 54.400 C 4.534 55.390,4.144 56.308,3.932 56.440 C 3.721 56.572,3.412 57.652,3.246 58.840 C 3.080 60.028,2.661 61.540,2.315 62.200 C 1.969 62.860,1.555 64.795,1.396 66.500 C 1.187 68.732,0.951 69.600,0.553 69.600 C 0.188 69.600,0.000 70.075,0.000 71.000 C 0.000 71.978,0.181 72.400,0.600 72.400 C 0.930 72.400,1.201 72.265,1.203 72.100 C 1.226 70.066,2.168 64.347,2.635 63.413 C 2.968 62.746,3.343 61.390,3.468 60.400 C 3.592 59.410,4.033 58.005,4.447 57.277 C 4.861 56.550,5.200 55.583,5.200 55.129 C 5.200 54.085,9.910 44.365,12.337 40.400 C 20.506 27.056,30.874 17.248,44.500 9.974 C 44.885 9.768,45.515 9.425,45.900 9.212 C 47.904 8.101,54.504 5.200,55.027 5.200 C 55.360 5.200,56.338 4.840,57.200 4.400 C 58.062 3.960,59.219 3.600,59.769 3.600 C 60.320 3.600,61.680 3.242,62.791 2.804 C 63.902 2.366,66.344 1.833,68.217 1.620 C 71.729 1.221,72.400 1.022,72.400 0.376 C 72.400 -0.230,69.710 -0.065,69.472 0.556 M328.000 0.376 C 328.000 1.035,328.804 1.289,332.029 1.650 C 333.760 1.844,336.088 2.362,337.203 2.801 C 338.317 3.240,339.680 3.600,340.231 3.600 C 340.781 3.600,341.938 3.960,342.800 4.400 C 343.662 4.840,344.656 5.200,345.009 5.200 C 346.072 5.200,353.338 8.601,357.141 10.878 C 358.538 11.715,359.818 12.400,359.984 12.400 C 360.151 12.400,362.306 13.824,364.774 15.564 C 370.867 19.860,374.147 22.793,379.580 28.800 C 383.200 32.803,387.891 40.059,391.215 46.800 C 392.355 49.110,393.605 51.630,393.993 52.400 C 394.382 53.170,394.835 54.430,395.001 55.200 C 395.167 55.970,395.549 56.955,395.851 57.389 C 396.153 57.823,396.400 58.586,396.400 59.085 C 396.400 59.585,396.835 61.300,397.366 62.896 C 397.897 64.493,398.426 66.972,398.542 68.405 C 398.771 71.244,399.090 72.400,399.643 72.400 C 400.153 72.400,400.087 69.696,399.573 69.524 C 399.337 69.446,398.968 67.946,398.751 66.191 C 398.534 64.436,398.124 62.640,397.841 62.200 C 397.558 61.760,397.212 60.553,397.073 59.517 C 396.934 58.482,396.456 56.954,396.010 56.123 C 395.565 55.292,395.200 54.303,395.200 53.925 C 395.200 53.012,394.359 51.200,393.936 51.200 C 393.751 51.200,393.600 50.822,393.600 50.359 C 393.600 49.896,393.120 48.591,392.534 47.459 C 391.947 46.327,391.213 44.898,390.902 44.285 C 389.520 41.559,389.125 40.905,386.047 36.242 C 383.850 32.915,380.540 28.721,379.764 28.280 C 379.454 28.104,379.200 27.711,379.200 27.407 C 379.200 27.103,378.840 26.740,378.400 26.600 C 377.960 26.460,377.600 26.178,377.600 25.973 C 377.600 25.170,369.422 17.783,366.000 15.495 C 365.450 15.127,364.280 14.318,363.400 13.696 C 360.896 11.927,354.570 8.400,353.902 8.400 C 353.570 8.400,353.082 8.139,352.817 7.820 C 352.552 7.502,351.680 7.024,350.878 6.760 C 350.075 6.495,348.875 5.946,348.210 5.541 C 347.544 5.135,346.545 4.802,345.989 4.801 C 345.433 4.801,344.586 4.525,344.107 4.190 C 343.627 3.854,342.209 3.390,340.955 3.158 C 339.701 2.926,338.298 2.498,337.837 2.206 C 337.377 1.914,335.689 1.550,334.087 1.396 C 332.480 1.242,330.923 0.866,330.615 0.558 C 329.989 -0.068,328.000 -0.206,328.000 0.376 M100.615 54.654 C 90.931 57.564,85.313 62.813,81.012 72.967 C 79.361 76.868,79.269 88.211,80.857 92.189 C 83.956 99.950,91.499 108.800,95.014 108.800 C 95.282 108.800,95.722 109.065,95.991 109.389 C 96.260 109.714,97.137 110.094,97.940 110.234 C 98.743 110.375,99.850 110.785,100.400 111.145 C 102.110 112.265,113.338 112.330,115.815 111.235 C 116.853 110.776,117.994 110.397,118.351 110.394 C 118.708 110.391,119.450 110.132,120.000 109.818 C 120.550 109.505,121.589 108.975,122.308 108.641 C 125.710 107.063,130.519 102.510,132.870 98.644 C 135.548 94.239,136.360 91.943,136.990 87.000 C 137.608 82.153,137.111 75.794,135.944 73.606 C 135.535 72.839,135.200 71.918,135.200 71.560 C 135.200 71.201,134.865 70.479,134.455 69.954 C 134.045 69.429,133.570 68.554,133.399 68.010 C 132.969 66.637,129.113 61.946,127.082 60.323 C 119.372 54.163,109.372 52.022,100.615 54.654 M114.200 54.840 C 120.894 56.439,126.584 59.934,130.400 64.789 C 130.950 65.488,131.710 66.428,132.088 66.878 C 132.467 67.327,132.893 68.079,133.035 68.548 C 133.178 69.016,133.527 69.670,133.810 70.000 C 134.094 70.330,134.539 71.410,134.800 72.400 C 135.061 73.390,135.558 74.517,135.904 74.905 C 136.971 76.101,136.757 89.256,135.635 91.385 C 135.176 92.256,134.800 93.267,134.800 93.631 C 134.800 93.994,134.473 94.721,134.073 95.246 C 133.673 95.771,133.111 96.785,132.824 97.500 C 132.538 98.215,132.157 98.800,131.978 98.800 C 131.800 98.800,131.539 99.162,131.399 99.604 C 131.106 100.526,125.376 106.400,124.769 106.400 C 124.548 106.400,123.835 106.760,123.184 107.200 C 122.533 107.640,121.505 108.332,120.900 108.737 C 120.295 109.143,119.080 109.606,118.200 109.767 C 117.320 109.928,116.150 110.361,115.600 110.730 C 114.126 111.718,102.674 111.718,101.200 110.730 C 100.650 110.361,99.480 109.928,98.600 109.767 C 97.720 109.606,96.460 109.109,95.800 108.663 C 92.873 106.685,92.418 106.400,92.184 106.400 C 90.959 106.400,85.127 99.953,83.761 97.088 C 83.371 96.269,82.905 95.600,82.726 95.600 C 82.547 95.600,82.398 95.195,82.396 94.700 C 82.394 94.205,81.944 92.837,81.396 91.660 C 80.188 89.066,79.857 76.553,80.955 74.986 C 81.260 74.550,81.741 73.385,82.024 72.397 C 82.307 71.408,82.756 70.330,83.022 70.000 C 83.288 69.670,83.622 69.015,83.765 68.545 C 83.909 68.074,84.425 67.226,84.913 66.660 C 85.401 66.094,86.160 65.167,86.600 64.600 C 87.828 63.017,90.004 60.800,90.330 60.800 C 90.491 60.800,90.906 60.485,91.252 60.100 C 92.377 58.850,98.506 55.603,99.756 55.594 C 100.220 55.591,101.680 55.241,103.000 54.816 C 106.197 53.787,109.827 53.794,114.200 54.840 M83.600 224.992 L 83.600 316.385 84.500 316.603 C 86.720 317.141,132.930 316.610,133.119 316.044 C 133.226 315.722,133.124 315.600,132.875 315.754 C 132.638 315.900,121.590 316.019,108.323 316.019 L 84.200 316.019 84.200 224.810 C 84.200 174.644,84.065 133.600,83.900 133.600 C 83.735 133.600,83.600 174.727,83.600 224.992 M166.797 134.100 C 166.548 170.268,166.915 315.856,167.255 316.266 C 167.624 316.711,172.022 316.788,192.152 316.703 L 216.600 316.600 216.800 265.800 C 216.981 219.878,217.063 214.862,217.655 213.559 C 218.015 212.767,218.435 211.327,218.588 210.359 C 219.660 203.594,226.999 192.628,233.173 188.566 C 236.456 186.406,239.395 184.838,240.200 184.816 C 240.640 184.805,241.505 184.532,242.122 184.210 C 245.893 182.243,258.389 182.915,263.000 185.332 C 263.440 185.563,264.470 186.079,265.290 186.480 C 266.764 187.201,270.300 189.922,272.400 191.951 C 275.852 195.287,280.472 204.269,281.374 209.400 C 281.529 210.280,281.913 211.771,282.228 212.714 C 282.712 214.164,282.801 222.206,282.806 264.914 C 282.810 296.033,282.958 315.630,283.192 316.000 C 283.580 316.614,332.767 316.966,333.374 316.359 C 333.810 315.924,333.625 196.239,333.185 193.935 C 332.961 192.761,332.601 190.106,332.385 188.036 C 332.169 185.966,331.634 183.112,331.196 181.694 C 330.758 180.276,330.400 178.605,330.400 177.981 C 330.400 177.358,330.222 176.737,330.005 176.603 C 329.788 176.469,329.337 175.423,329.004 174.280 C 328.257 171.722,326.694 167.842,326.122 167.129 C 325.889 166.838,325.561 166.150,325.394 165.600 C 325.227 165.050,324.755 164.171,324.345 163.646 C 323.935 163.121,323.600 162.478,323.600 162.216 C 323.600 161.954,322.790 160.697,321.800 159.422 C 320.810 158.147,320.000 156.970,320.000 156.807 C 320.000 153.713,303.329 140.218,297.526 138.615 C 297.017 138.474,295.790 138.032,294.800 137.632 C 286.588 134.315,267.432 132.163,262.570 134.011 C 261.975 134.238,259.668 134.708,257.444 135.057 C 255.220 135.405,253.213 135.841,252.984 136.024 C 252.756 136.208,251.856 136.534,250.984 136.748 C 238.798 139.751,223.295 150.864,218.624 159.946 C 217.213 162.689,217.007 161.156,216.880 146.981 C 216.814 139.621,216.634 133.600,216.480 133.600 C 216.091 133.599,216.525 160.883,216.924 161.500 C 217.527 162.432,218.438 162.006,219.065 160.500 C 219.409 159.675,219.809 158.910,219.954 158.800 C 220.100 158.690,220.525 158.119,220.899 157.530 C 222.112 155.621,227.696 149.994,230.180 148.177 C 236.069 143.868,235.139 144.439,241.702 141.100 C 244.189 139.835,246.550 138.800,246.950 138.800 C 247.350 138.800,248.154 138.549,248.738 138.242 C 250.651 137.238,256.264 135.600,257.794 135.600 C 258.617 135.600,260.817 135.231,262.683 134.780 C 267.933 133.511,282.996 134.277,288.200 136.078 C 288.860 136.306,290.390 136.760,291.600 137.087 C 292.810 137.414,294.084 137.933,294.431 138.240 C 294.779 138.548,295.409 138.803,295.831 138.806 C 296.254 138.809,297.050 139.073,297.600 139.392 C 298.150 139.712,299.347 140.325,300.260 140.755 C 301.844 141.502,307.179 144.721,307.600 145.184 C 307.710 145.305,308.520 145.938,309.400 146.591 C 312.477 148.871,319.600 156.484,319.600 157.491 C 319.600 157.692,320.050 158.247,320.600 158.725 C 321.150 159.203,321.600 159.844,321.600 160.148 C 321.600 160.453,321.880 160.935,322.223 161.219 C 322.566 161.504,323.102 162.291,323.415 162.968 C 323.728 163.646,324.157 164.470,324.368 164.800 C 324.950 165.712,326.638 169.611,327.179 171.294 C 327.443 172.116,327.825 172.892,328.029 173.018 C 328.233 173.144,328.400 173.672,328.400 174.190 C 328.400 174.709,328.760 175.974,329.200 177.000 C 329.640 178.026,330.000 179.262,330.000 179.746 C 330.000 180.230,330.280 181.610,330.622 182.813 C 331.224 184.931,331.387 186.166,332.369 196.000 C 333.313 205.461,333.158 315.500,332.200 315.881 C 331.760 316.057,320.690 316.110,307.600 316.000 L 283.800 315.800 283.600 264.200 C 283.401 212.954,283.394 212.584,282.554 210.200 C 282.089 208.880,281.498 206.917,281.239 205.837 C 279.650 199.196,269.742 186.400,266.190 186.400 C 265.925 186.400,265.279 186.065,264.754 185.655 C 264.229 185.245,263.350 184.779,262.800 184.618 C 262.250 184.457,260.990 183.942,260.000 183.473 C 257.244 182.167,243.796 182.209,242.010 183.529 C 241.362 184.008,240.477 184.400,240.042 184.400 C 239.120 184.400,238.018 184.869,235.800 186.205 C 234.920 186.735,233.660 187.473,233.000 187.845 C 231.923 188.452,230.406 189.760,227.245 192.806 C 226.201 193.812,224.538 195.916,222.968 198.216 C 222.216 199.318,221.353 201.056,219.203 205.800 C 218.804 206.680,218.353 208.298,218.200 209.395 C 218.047 210.492,217.625 211.932,217.261 212.595 C 216.658 213.695,216.591 218.253,216.491 264.894 L 216.382 315.988 192.291 316.094 C 179.027 316.152,167.975 316.043,167.700 315.851 C 166.983 315.351,166.963 134.797,167.680 134.080 C 168.053 133.707,168.009 133.600,167.480 133.600 C 167.106 133.600,166.798 133.825,166.797 134.100 M0.000 329.200 C 0.000 329.946,0.206 330.400,0.545 330.400 C 0.933 330.400,1.170 331.283,1.368 333.473 C 1.521 335.163,1.996 337.313,2.423 338.251 C 2.850 339.189,3.200 340.441,3.200 341.034 C 3.200 341.627,3.554 342.852,3.987 343.756 C 4.420 344.660,4.967 346.165,5.202 347.100 C 5.438 348.035,5.784 348.800,5.971 348.800 C 6.158 348.800,6.426 349.412,6.566 350.159 C 6.706 350.907,7.176 351.970,7.611 352.523 C 8.045 353.075,8.400 353.773,8.400 354.075 C 8.400 356.509,18.873 371.044,24.315 376.163 C 25.038 376.843,26.511 378.238,27.588 379.261 C 30.422 381.955,35.206 385.505,40.200 388.620 C 42.796 390.239,49.699 393.600,50.428 393.600 C 50.853 393.600,51.200 393.775,51.200 393.989 C 51.200 394.203,52.235 394.678,53.500 395.046 C 54.765 395.413,56.160 395.937,56.600 396.209 C 57.040 396.481,58.256 396.813,59.303 396.945 C 60.350 397.077,61.643 397.472,62.177 397.822 C 62.735 398.187,64.449 398.556,66.210 398.689 C 68.236 398.843,69.342 399.103,69.479 399.460 C 69.720 400.090,72.400 400.206,72.400 399.587 C 72.400 399.005,71.853 398.863,67.919 398.426 C 66.005 398.214,63.932 397.779,63.314 397.459 C 62.695 397.139,61.292 396.749,60.195 396.592 C 59.098 396.434,57.639 395.967,56.953 395.553 C 56.267 395.139,55.312 394.800,54.832 394.800 C 54.352 394.800,53.293 394.447,52.479 394.015 C 51.666 393.583,49.622 392.595,47.938 391.818 C 33.773 385.288,19.186 372.233,12.609 360.200 C 12.008 359.100,11.377 358.020,11.207 357.800 C 10.877 357.373,8.004 351.661,6.257 347.960 C 5.676 346.728,5.200 345.337,5.200 344.870 C 5.200 344.402,4.841 343.430,4.401 342.710 C 3.962 341.989,3.602 340.912,3.601 340.315 C 3.601 339.718,3.256 338.357,2.836 337.291 C 2.416 336.225,1.959 334.464,1.821 333.376 C 1.683 332.289,1.476 330.635,1.360 329.700 C 1.111 327.673,0.000 327.265,0.000 329.200 M398.821 329.500 C 398.592 330.325,398.403 331.758,398.402 332.685 C 398.401 333.612,398.054 335.322,397.632 336.485 C 397.210 337.648,396.746 339.230,396.602 340.000 C 396.207 342.109,394.698 346.055,392.472 350.800 C 392.007 351.790,391.441 353.050,391.214 353.600 C 390.529 355.259,385.715 363.359,384.609 364.713 C 384.300 365.091,382.981 366.840,381.677 368.600 C 379.570 371.443,374.617 376.710,371.290 379.645 C 367.350 383.119,358.711 388.652,353.000 391.360 C 350.800 392.402,348.334 393.603,347.521 394.028 C 346.707 394.452,345.682 394.800,345.244 394.800 C 344.805 394.800,343.850 395.143,343.123 395.562 C 342.395 395.981,340.990 396.444,340.000 396.591 C 339.010 396.738,337.578 397.141,336.817 397.487 C 336.056 397.833,333.926 398.269,332.082 398.456 C 328.616 398.807,328.000 398.984,328.000 399.624 C 328.000 400.197,329.985 400.072,330.596 399.461 C 330.893 399.164,332.428 398.813,334.008 398.681 C 335.587 398.548,337.310 398.158,337.837 397.813 C 338.363 397.468,339.650 397.071,340.697 396.931 C 341.744 396.792,343.227 396.345,343.994 395.939 C 344.761 395.532,345.726 395.200,346.140 395.200 C 346.553 395.200,347.546 394.872,348.346 394.471 C 349.145 394.070,350.880 393.231,352.200 392.606 C 356.692 390.478,358.599 389.484,359.231 388.942 C 359.579 388.644,359.980 388.400,360.124 388.400 C 360.378 388.400,364.593 385.779,365.395 385.122 C 365.618 384.940,366.520 384.247,367.400 383.582 C 374.292 378.377,382.715 369.453,386.200 363.664 C 386.420 363.299,386.704 362.910,386.830 362.800 C 386.957 362.690,387.407 361.970,387.830 361.200 C 388.254 360.430,388.699 359.710,388.820 359.600 C 389.323 359.144,391.600 354.769,391.600 354.260 C 391.600 353.956,391.971 353.236,392.424 352.660 C 392.877 352.084,393.351 350.980,393.476 350.206 C 393.602 349.433,393.832 348.800,393.988 348.800 C 394.369 348.800,395.200 346.932,395.200 346.075 C 395.200 345.697,395.565 344.708,396.010 343.877 C 396.456 343.046,396.934 341.518,397.073 340.483 C 397.212 339.447,397.558 338.240,397.841 337.800 C 398.124 337.360,398.534 335.564,398.751 333.809 C 398.968 332.054,399.337 330.554,399.573 330.476 C 400.102 330.299,400.145 328.000,399.619 328.000 C 399.409 328.000,399.050 328.675,398.821 329.500 " stroke="none" fill="#848484" fill-rule="evenodd"></path><path id="path3" d="M72.243 0.633 C 72.093 1.023,72.182 1.206,72.475 1.108 C 73.073 0.909,73.402 -0.000,72.876 0.000 C 72.661 0.000,72.376 0.285,72.243 0.633 M327.292 0.475 C 327.379 0.736,327.664 1.021,327.925 1.108 C 328.218 1.206,328.307 1.023,328.157 0.633 C 327.878 -0.094,327.052 -0.245,327.292 0.475 M107.300 53.487 C 107.905 53.578,108.895 53.578,109.500 53.487 C 110.105 53.395,109.610 53.320,108.400 53.320 C 107.190 53.320,106.695 53.395,107.300 53.487 M79.293 82.800 C 79.293 83.570,79.375 83.885,79.476 83.500 C 79.576 83.115,79.576 82.485,79.476 82.100 C 79.375 81.715,79.293 82.030,79.293 82.800 M136.893 88.800 C 136.893 89.570,136.975 89.885,137.076 89.500 C 137.176 89.115,137.176 88.485,137.076 88.100 C 136.975 87.715,136.893 88.030,136.893 88.800 M107.300 112.287 C 107.905 112.378,108.895 112.378,109.500 112.287 C 110.105 112.195,109.610 112.120,108.400 112.120 C 107.190 112.120,106.695 112.195,107.300 112.287 M96.529 133.500 C 103.310 133.561,114.290 133.561,120.929 133.500 C 127.568 133.438,122.020 133.388,108.600 133.388 C 95.180 133.388,89.748 133.438,96.529 133.500 M179.700 133.500 C 186.465 133.561,197.535 133.561,204.300 133.500 C 211.065 133.438,205.530 133.388,192.000 133.388 C 178.470 133.388,172.935 133.438,179.700 133.500 M269.715 133.496 C 270.988 133.576,272.968 133.575,274.115 133.494 C 275.262 133.414,274.220 133.349,271.800 133.350 C 269.380 133.351,268.442 133.416,269.715 133.496 M83.397 225.000 C 83.397 275.160,83.443 295.621,83.500 270.468 C 83.557 245.315,83.557 204.275,83.500 179.268 C 83.443 154.261,83.397 174.840,83.397 225.000 M133.397 225.000 C 133.397 275.160,133.443 295.621,133.500 270.468 C 133.557 245.315,133.557 204.275,133.500 179.268 C 133.443 154.261,133.397 174.840,133.397 225.000 M216.978 146.600 C 216.979 153.640,217.033 156.464,217.099 152.875 C 217.166 149.286,217.166 143.526,217.099 140.075 C 217.033 136.624,216.978 139.560,216.978 146.600 M166.498 225.676 C 166.444 275.328,166.535 316.036,166.700 316.138 C 166.971 316.306,166.970 254.950,166.697 168.000 C 166.641 150.070,166.551 176.024,166.498 225.676 M225.391 151.300 L 222.200 154.600 225.500 151.409 C 227.315 149.655,228.800 148.170,228.800 148.109 C 228.800 147.818,228.354 148.235,225.391 151.300 M250.100 183.076 C 250.485 183.176,251.115 183.176,251.500 183.076 C 251.885 182.975,251.570 182.893,250.800 182.893 C 250.030 182.893,249.715 182.975,250.100 183.076 M245.700 183.476 C 246.085 183.576,246.715 183.576,247.100 183.476 C 247.485 183.375,247.170 183.293,246.400 183.293 C 245.630 183.293,245.315 183.375,245.700 183.476 M228.800 192.200 C 227.828 193.190,227.123 194.000,227.233 194.000 C 227.343 194.000,228.228 193.190,229.200 192.200 C 230.172 191.210,230.877 190.400,230.767 190.400 C 230.657 190.400,229.772 191.210,228.800 192.200 M333.795 256.800 C 333.795 288.810,333.842 301.905,333.900 285.900 C 333.958 269.895,333.958 243.705,333.900 227.700 C 333.842 211.695,333.795 224.790,333.795 256.800 M282.493 215.200 C 282.493 215.970,282.575 216.285,282.676 215.900 C 282.776 215.515,282.776 214.885,282.676 214.500 C 282.575 214.115,282.493 214.430,282.493 215.200 M216.994 267.600 C 216.994 294.330,217.042 305.265,217.100 291.900 C 217.158 278.535,217.158 256.665,217.100 243.300 C 217.042 229.935,216.994 240.870,216.994 267.600 M0.000 327.600 C 0.000 327.820,0.270 328.000,0.600 328.000 C 0.930 328.000,1.200 327.820,1.200 327.600 C 1.200 327.380,0.930 327.200,0.600 327.200 C 0.270 327.200,0.000 327.380,0.000 327.600 M399.043 327.833 C 398.667 328.811,398.749 328.908,399.400 328.257 C 400.080 327.577,400.167 327.200,399.643 327.200 C 399.446 327.200,399.176 327.485,399.043 327.833 M72.243 399.367 C 72.376 399.715,72.661 400.000,72.876 400.000 C 73.402 400.000,73.073 399.091,72.475 398.892 C 72.182 398.794,72.093 398.977,72.243 399.367 M327.467 399.067 C 327.084 399.449,327.138 400.000,327.557 400.000 C 327.754 400.000,328.018 399.730,328.145 399.400 C 328.379 398.790,327.953 398.581,327.467 399.067 " stroke="none" fill="#7c7c7c" fill-rule="evenodd"></path><path id="path4" d="M72.998 0.605 C 72.729 1.013,71.225 1.388,68.371 1.758 C 66.045 2.059,63.579 2.597,62.891 2.953 C 62.203 3.309,61.084 3.600,60.404 3.600 C 59.724 3.600,58.492 3.945,57.665 4.367 C 56.839 4.788,55.503 5.257,54.696 5.408 C 53.889 5.560,53.020 5.935,52.765 6.242 C 52.510 6.549,52.074 6.800,51.796 6.800 C 50.862 6.800,45.838 9.318,41.400 12.011 C 31.685 17.905,28.435 20.559,20.589 29.000 C 16.721 33.161,8.142 47.167,6.991 51.200 C 6.834 51.750,6.472 52.470,6.187 52.800 C 5.901 53.130,5.535 54.116,5.372 54.992 C 5.210 55.867,4.745 57.127,4.340 57.792 C 3.935 58.456,3.602 59.594,3.601 60.320 C 3.601 61.046,3.308 62.204,2.952 62.893 C 2.458 63.849,1.310 70.186,1.213 72.500 C 1.206 72.665,0.930 72.800,0.600 72.800 C 0.147 72.800,0.000 73.289,0.000 74.800 C 0.000 76.245,0.155 76.800,0.558 76.800 C 1.246 76.800,2.402 70.923,2.401 67.431 C 2.400 65.845,2.606 64.835,3.025 64.373 C 3.368 63.993,3.807 62.566,4.000 61.200 C 4.193 59.834,4.610 58.421,4.927 58.059 C 5.243 57.696,5.620 56.580,5.764 55.578 C 5.916 54.518,6.355 53.474,6.813 53.082 C 7.246 52.711,7.600 51.980,7.600 51.458 C 7.600 50.935,7.960 50.050,8.400 49.491 C 8.840 48.931,9.200 48.222,9.200 47.915 C 9.200 47.607,9.650 46.745,10.200 46.000 C 10.750 45.255,11.200 44.376,11.200 44.048 C 11.200 43.720,11.541 43.080,11.957 42.626 C 12.373 42.172,13.203 40.853,13.800 39.697 C 14.398 38.540,15.055 37.490,15.260 37.363 C 15.579 37.166,16.560 35.797,18.200 33.262 C 18.976 32.063,19.204 31.772,21.690 28.816 C 23.071 27.174,24.740 25.335,25.400 24.727 C 26.060 24.120,26.960 23.290,27.400 22.882 C 28.510 21.855,32.464 18.685,33.240 18.200 C 35.291 16.919,37.163 15.584,37.363 15.260 C 37.490 15.055,38.540 14.398,39.697 13.800 C 40.853 13.203,42.160 12.394,42.600 12.003 C 43.040 11.612,43.850 11.160,44.400 10.999 C 44.950 10.837,45.670 10.491,46.000 10.228 C 47.057 9.388,50.850 7.600,51.575 7.600 C 51.961 7.600,52.595 7.248,52.984 6.818 C 53.388 6.371,54.489 5.921,55.546 5.769 C 56.566 5.622,57.696 5.243,58.059 4.927 C 58.421 4.610,59.797 4.198,61.117 4.012 C 62.438 3.825,63.941 3.407,64.459 3.083 C 65.006 2.740,66.906 2.396,69.000 2.260 C 73.121 1.993,76.463 1.230,76.703 0.500 C 76.952 -0.261,73.503 -0.163,72.998 0.605 M323.297 0.500 C 323.531 1.212,326.810 1.963,331.000 2.264 C 333.301 2.428,335.103 2.788,335.994 3.261 C 336.761 3.667,338.090 4.000,338.947 4.000 C 339.804 4.000,341.067 4.338,341.753 4.751 C 342.439 5.165,343.710 5.629,344.579 5.784 C 345.447 5.939,346.596 6.411,347.133 6.833 C 347.669 7.255,348.512 7.600,349.005 7.600 C 349.498 7.600,350.125 7.869,350.398 8.197 C 350.670 8.526,351.592 8.982,352.447 9.213 C 353.301 9.443,354.000 9.784,354.000 9.972 C 354.000 10.160,354.675 10.608,355.500 10.968 C 356.325 11.327,357.810 12.156,358.800 12.808 C 359.790 13.460,361.095 14.193,361.700 14.436 C 362.305 14.679,362.800 15.031,362.800 15.218 C 362.800 15.404,363.835 16.231,365.100 17.055 C 371.661 21.326,377.347 26.824,381.800 33.200 C 382.680 34.460,383.814 36.011,384.321 36.646 C 385.246 37.806,385.469 38.165,387.071 41.073 C 387.550 41.942,388.225 42.889,388.571 43.176 C 388.917 43.463,389.200 44.008,389.200 44.388 C 389.200 44.767,389.560 45.493,390.000 46.000 C 390.440 46.507,390.800 47.231,390.800 47.607 C 390.800 47.984,391.137 48.721,391.548 49.246 C 391.959 49.771,392.419 50.766,392.571 51.459 C 392.722 52.151,393.195 53.034,393.623 53.421 C 394.092 53.845,394.400 54.645,394.400 55.439 C 394.400 56.162,394.739 57.350,395.153 58.077 C 395.567 58.805,396.015 60.270,396.150 61.333 C 396.284 62.396,396.653 63.746,396.969 64.333 C 397.285 64.920,397.728 67.380,397.954 69.800 C 398.369 74.256,398.982 76.800,399.639 76.800 C 400.279 76.800,400.055 73.128,399.386 72.639 C 398.969 72.334,398.650 71.018,398.394 68.549 C 398.187 66.546,397.654 64.058,397.209 63.021 C 396.764 61.983,396.400 60.601,396.400 59.951 C 396.400 59.300,396.040 58.062,395.600 57.200 C 395.160 56.338,394.800 55.345,394.800 54.995 C 394.800 54.645,394.456 53.693,394.035 52.879 C 393.614 52.066,392.255 49.330,391.014 46.800 C 382.760 29.966,370.526 17.626,353.800 9.264 C 348.166 6.447,345.350 5.200,344.623 5.200 C 344.279 5.200,343.325 4.840,342.504 4.400 C 341.684 3.960,340.508 3.600,339.893 3.600 C 339.278 3.600,338.105 3.313,337.287 2.962 C 336.469 2.612,334.007 2.084,331.815 1.790 C 329.143 1.431,327.678 1.048,327.371 0.627 C 326.792 -0.163,323.041 -0.281,323.297 0.500 M102.400 53.188 C 101.850 53.364,100.860 53.797,100.200 54.151 C 99.540 54.505,98.439 54.796,97.754 54.798 C 97.069 54.799,96.050 55.160,95.491 55.600 C 94.931 56.040,94.216 56.400,93.901 56.400 C 93.369 56.400,92.633 56.888,88.974 59.670 C 87.428 60.844,83.200 65.826,83.200 66.471 C 83.200 66.694,82.866 67.354,82.458 67.938 C 82.050 68.522,81.586 69.540,81.427 70.200 C 81.268 70.860,80.857 71.712,80.514 72.093 C 80.121 72.528,79.776 74.034,79.583 76.147 C 79.414 77.997,79.079 79.878,78.838 80.329 C 78.222 81.480,78.294 83.998,79.000 86.000 C 79.330 86.935,79.600 88.734,79.600 89.996 C 79.600 91.594,79.820 92.582,80.324 93.246 C 80.723 93.771,81.263 94.944,81.526 95.853 C 81.789 96.761,82.273 97.728,82.602 98.002 C 82.931 98.275,83.200 98.766,83.200 99.095 C 83.200 99.648,86.882 104.265,87.804 104.868 C 88.029 105.015,88.715 105.600,89.327 106.168 C 89.940 106.735,90.584 107.200,90.759 107.200 C 90.934 107.200,91.493 107.560,92.000 108.000 C 92.507 108.440,93.130 108.800,93.383 108.800 C 93.637 108.800,94.455 109.250,95.200 109.800 C 95.945 110.350,96.978 110.800,97.494 110.800 C 98.010 110.800,98.952 111.184,99.588 111.654 C 101.372 112.973,115.418 112.980,117.200 111.663 C 117.842 111.188,118.801 110.800,119.330 110.800 C 119.859 110.800,120.736 110.451,121.278 110.025 C 121.820 109.598,122.749 109.128,123.342 108.979 C 123.936 108.830,124.603 108.369,124.825 107.954 C 125.047 107.539,125.510 107.200,125.855 107.200 C 127.104 107.200,132.868 100.847,133.853 98.384 C 134.202 97.513,134.640 96.800,134.828 96.800 C 135.016 96.800,135.373 96.035,135.622 95.100 C 135.871 94.165,136.330 93.114,136.642 92.763 C 136.954 92.413,137.371 90.703,137.568 88.963 C 137.766 87.224,138.105 85.125,138.322 84.300 C 138.580 83.316,138.580 82.284,138.322 81.300 C 138.106 80.475,137.755 78.376,137.542 76.635 C 137.291 74.573,136.885 73.125,136.378 72.481 C 135.950 71.937,135.600 71.073,135.600 70.562 C 135.600 70.050,135.262 69.309,134.850 68.916 C 134.437 68.522,133.962 67.750,133.795 67.200 C 133.627 66.650,133.065 65.691,132.545 65.069 C 132.025 64.447,131.600 63.803,131.600 63.638 C 131.600 62.639,125.081 57.197,123.149 56.584 C 122.636 56.421,121.762 55.971,121.208 55.584 C 120.653 55.196,119.395 54.763,118.412 54.621 C 117.429 54.479,116.510 54.178,116.371 53.952 C 115.733 52.921,105.063 52.337,102.400 53.188 M116.000 54.455 C 123.193 56.712,129.305 60.869,131.907 65.273 C 132.273 65.893,132.694 66.400,132.843 66.400 C 132.992 66.400,133.234 66.881,133.381 67.468 C 133.529 68.056,133.998 68.980,134.425 69.522 C 134.851 70.064,135.200 70.801,135.200 71.160 C 135.200 71.518,135.574 72.509,136.030 73.361 C 137.865 76.784,137.935 87.779,136.148 92.088 C 135.627 93.346,135.200 94.623,135.200 94.926 C 135.200 95.228,134.856 95.787,134.436 96.167 C 134.016 96.548,133.552 97.338,133.405 97.923 C 133.133 99.008,130.410 102.483,128.217 104.544 C 126.008 106.619,119.938 110.347,118.712 110.381 C 118.334 110.391,117.280 110.788,116.369 111.263 C 114.878 112.040,114.089 112.126,108.400 112.126 C 102.711 112.126,101.922 112.040,100.431 111.263 C 99.520 110.788,98.411 110.400,97.966 110.400 C 97.522 110.400,96.495 109.950,95.686 109.400 C 94.877 108.850,94.057 108.400,93.865 108.400 C 93.673 108.400,93.007 107.995,92.385 107.500 C 91.764 107.005,90.612 106.150,89.825 105.600 C 87.800 104.183,84.007 99.430,82.644 96.600 C 82.009 95.280,81.235 93.676,80.926 93.035 C 79.108 89.274,79.148 76.916,80.992 72.600 C 83.902 65.792,87.156 61.546,91.800 58.502 C 93.998 57.060,97.673 55.215,98.400 55.188 C 98.730 55.175,99.720 54.891,100.600 54.555 C 104.544 53.052,111.388 53.008,116.000 54.455 M83.280 133.280 C 82.581 133.979,82.581 316.021,83.280 316.720 C 84.228 317.668,133.074 317.383,133.586 316.426 C 134.165 315.345,134.165 134.655,133.586 133.574 C 133.074 132.617,84.228 132.332,83.280 133.280 M166.297 133.359 C 165.206 134.187,165.211 315.817,166.302 316.644 C 167.609 317.637,216.651 317.427,217.186 316.426 C 217.465 315.905,217.602 299.614,217.606 266.526 C 217.611 223.963,217.692 217.171,218.210 215.682 C 218.539 214.738,218.970 212.848,219.167 211.482 C 219.364 210.117,219.811 208.460,220.160 207.800 C 220.509 207.140,220.796 206.309,220.798 205.954 C 220.799 205.599,221.160 204.850,221.600 204.291 C 222.040 203.731,222.400 203.014,222.400 202.696 C 222.400 200.723,232.593 188.800,234.279 188.800 C 234.579 188.800,234.928 188.532,235.054 188.204 C 235.180 187.876,236.003 187.392,236.883 187.128 C 237.763 186.864,238.574 186.413,238.684 186.124 C 238.795 185.836,239.287 185.600,239.777 185.600 C 240.267 185.600,241.823 185.218,243.234 184.752 C 246.146 183.789,256.330 183.512,257.361 184.367 C 257.652 184.609,258.942 185.001,260.227 185.239 C 261.512 185.476,263.001 186.015,263.536 186.435 C 264.070 186.856,264.779 187.200,265.111 187.200 C 266.111 187.200,273.600 193.992,273.600 194.899 C 273.600 195.072,274.410 196.326,275.400 197.686 C 276.390 199.047,277.200 200.457,277.200 200.819 C 277.200 201.181,277.560 201.893,278.000 202.400 C 278.440 202.907,278.800 203.707,278.800 204.177 C 278.800 204.646,279.149 205.716,279.576 206.553 C 280.003 207.390,280.478 209.087,280.633 210.325 C 280.788 211.563,281.203 213.211,281.557 213.988 C 282.135 215.257,282.211 220.509,282.313 265.775 C 282.393 301.368,282.554 316.304,282.862 316.675 C 283.362 317.277,332.972 317.459,333.912 316.863 C 334.735 316.341,334.622 193.819,333.796 190.647 C 333.470 189.396,333.089 187.074,332.949 185.486 C 332.809 183.899,332.424 181.970,332.094 181.200 C 331.764 180.430,331.351 178.839,331.177 177.664 C 331.002 176.490,330.568 175.207,330.213 174.814 C 329.857 174.421,329.456 173.402,329.322 172.550 C 329.187 171.697,328.765 170.597,328.384 170.103 C 328.002 169.610,327.572 168.575,327.427 167.803 C 327.282 167.032,327.019 166.400,326.843 166.400 C 326.666 166.400,326.219 165.725,325.850 164.900 C 324.576 162.052,323.507 160.199,322.955 159.880 C 322.650 159.704,322.400 159.332,322.400 159.052 C 322.400 158.773,321.950 158.153,321.400 157.675 C 320.850 157.197,320.400 156.560,320.400 156.261 C 320.400 155.962,319.995 155.248,319.500 154.674 C 319.005 154.101,318.240 153.159,317.800 152.583 C 315.330 149.344,309.276 143.925,305.655 141.710 C 302.801 139.964,295.892 136.779,294.078 136.373 C 293.063 136.145,292.008 135.772,291.733 135.544 C 291.458 135.316,289.921 134.964,288.317 134.763 C 286.714 134.562,284.771 134.084,284.001 133.702 C 281.930 132.675,262.127 132.651,260.000 133.673 C 259.230 134.043,258.240 134.427,257.800 134.526 C 257.282 134.643,257.441 134.724,258.250 134.754 C 258.937 134.779,260.227 134.543,261.115 134.230 C 263.332 133.448,272.961 133.046,277.600 133.541 C 282.275 134.041,289.956 135.470,290.557 135.952 C 290.800 136.147,291.630 136.430,292.400 136.579 C 294.015 136.893,294.581 137.132,300.800 140.122 C 308.832 143.985,314.449 148.899,320.612 157.455 C 322.255 159.737,323.600 161.748,323.600 161.924 C 323.600 162.100,324.050 162.855,324.600 163.600 C 325.150 164.345,325.604 165.235,325.609 165.578 C 325.614 165.920,325.970 166.650,326.400 167.200 C 326.830 167.750,327.187 168.470,327.194 168.800 C 327.200 169.130,327.487 169.940,327.831 170.600 C 328.700 172.265,329.931 175.780,330.564 178.400 C 330.856 179.610,331.381 181.770,331.729 183.200 C 333.794 191.666,333.774 190.990,333.904 255.596 C 334.018 312.176,333.983 315.823,333.336 316.296 C 332.359 317.010,283.993 317.033,283.280 316.320 C 282.912 315.952,282.792 304.287,282.766 266.420 C 282.729 212.485,282.818 214.679,280.331 206.400 C 277.996 198.632,269.046 186.800,265.505 186.800 C 265.177 186.800,264.439 186.431,263.866 185.981 C 260.377 183.236,247.051 182.403,241.200 184.564 C 238.295 185.637,234.400 187.619,234.400 188.025 C 234.400 188.231,234.108 188.400,233.751 188.400 C 230.438 188.400,218.800 205.323,218.800 210.140 C 218.800 210.737,218.485 211.895,218.100 212.713 C 217.447 214.101,217.393 217.583,217.293 264.968 C 217.216 301.261,217.059 315.888,216.744 316.268 C 216.178 316.949,168.438 317.063,167.174 316.386 C 166.412 315.978,166.400 314.532,166.400 225.000 C 166.400 135.468,166.412 134.022,167.174 133.614 C 168.353 132.983,216.086 133.046,216.720 133.680 C 217.073 134.033,217.202 137.594,217.206 147.180 C 217.213 161.136,217.367 162.360,218.761 159.481 C 222.622 151.505,236.264 141.268,248.000 137.540 C 250.090 136.877,252.160 136.165,252.600 135.958 C 253.040 135.752,254.210 135.427,255.200 135.235 L 257.000 134.888 255.000 134.846 C 253.900 134.824,252.471 135.081,251.825 135.418 C 251.179 135.754,249.829 136.209,248.825 136.427 C 245.079 137.241,237.089 141.077,232.585 144.225 C 229.307 146.516,229.264 146.553,225.350 150.380 C 220.904 154.726,219.154 156.912,218.130 159.400 C 217.942 159.855,217.714 154.509,217.600 147.000 C 217.490 139.740,217.254 133.575,217.076 133.300 C 216.586 132.542,167.298 132.599,166.297 133.359 M133.120 133.680 C 133.819 134.379,133.819 315.621,133.120 316.320 C 132.427 317.013,84.373 317.013,83.680 316.320 C 82.787 315.427,83.005 134.153,83.900 133.632 C 84.975 133.006,132.492 133.052,133.120 133.680 M0.000 325.200 C 0.000 326.640,0.156 327.200,0.555 327.200 C 1.150 327.200,1.405 328.232,1.839 332.400 C 1.988 333.830,2.445 335.862,2.855 336.915 C 3.265 337.968,3.600 339.321,3.600 339.921 C 3.600 340.521,3.960 341.684,4.400 342.504 C 4.840 343.325,5.200 344.295,5.200 344.659 C 5.200 345.022,5.676 346.328,6.258 347.560 C 8.288 351.858,11.303 357.805,11.754 358.400 C 12.004 358.730,12.551 359.630,12.970 360.400 C 19.305 372.048,33.322 384.644,47.407 391.345 C 49.603 392.390,52.066 393.595,52.879 394.022 C 53.693 394.450,54.773 394.801,55.279 394.803 C 55.786 394.804,56.740 395.163,57.400 395.600 C 58.060 396.037,59.230 396.400,60.000 396.406 C 60.770 396.412,62.194 396.778,63.166 397.219 C 64.173 397.676,66.577 398.189,68.766 398.413 C 71.327 398.676,72.747 399.005,73.044 399.404 C 73.606 400.158,76.949 400.248,76.701 399.502 C 76.478 398.834,73.143 398.130,68.571 397.788 C 66.262 397.614,64.652 397.303,64.382 396.978 C 64.141 396.688,62.922 396.328,61.672 396.179 C 60.422 396.030,58.839 395.569,58.153 395.154 C 57.467 394.739,56.280 394.400,55.515 394.400 C 54.646 394.400,53.860 394.109,53.421 393.623 C 53.034 393.195,52.151 392.722,51.459 392.571 C 50.766 392.419,49.771 391.959,49.246 391.548 C 48.721 391.137,47.984 390.800,47.607 390.800 C 47.231 390.800,46.513 390.445,46.014 390.012 C 45.514 389.578,44.721 389.103,44.252 388.954 C 43.784 388.806,42.860 388.305,42.200 387.841 C 40.623 386.733,39.537 386.057,38.800 385.724 C 38.215 385.461,35.375 383.432,30.687 379.928 C 26.149 376.537,20.727 370.697,17.432 365.649 C 16.427 364.110,15.413 362.732,15.178 362.586 C 14.943 362.441,14.582 361.935,14.376 361.461 C 13.964 360.512,13.422 359.610,12.176 357.800 C 11.722 357.140,11.115 356.015,10.827 355.300 C 10.539 354.585,10.159 354.000,9.983 354.000 C 9.807 354.000,9.540 353.415,9.389 352.700 C 9.237 351.985,8.795 351.040,8.406 350.600 C 8.017 350.160,7.582 349.142,7.439 348.339 C 7.295 347.535,6.931 346.782,6.629 346.666 C 6.327 346.551,5.954 345.678,5.801 344.728 C 5.648 343.778,5.234 342.550,4.881 342.000 C 4.527 341.450,4.113 339.954,3.960 338.677 C 3.807 337.399,3.417 336.049,3.093 335.677 C 2.717 335.244,2.421 333.704,2.272 331.400 C 1.964 326.635,1.241 323.200,0.545 323.200 C 0.158 323.200,0.000 323.779,0.000 325.200 M398.830 324.487 C 398.583 325.195,398.167 327.940,397.906 330.587 C 397.645 333.234,397.210 335.627,396.940 335.905 C 396.669 336.182,396.341 337.262,396.211 338.305 C 396.080 339.347,395.619 340.920,395.186 341.800 C 394.752 342.680,394.398 343.957,394.399 344.638 C 394.400 345.357,394.074 346.171,393.623 346.579 C 393.195 346.966,392.725 347.849,392.578 348.541 C 392.431 349.234,392.084 350.070,391.806 350.400 C 391.528 350.730,391.089 351.661,390.830 352.468 C 390.571 353.275,390.098 354.152,389.780 354.417 C 389.461 354.682,389.200 355.214,389.200 355.600 C 389.200 355.986,388.917 356.537,388.571 356.824 C 388.004 357.294,387.393 358.280,385.638 361.552 C 385.329 362.129,384.961 362.690,384.820 362.800 C 384.678 362.910,383.413 364.620,382.009 366.600 C 378.661 371.319,373.555 376.896,370.590 379.073 C 369.935 379.554,367.807 381.130,365.860 382.576 C 363.914 384.022,361.169 385.849,359.760 386.637 C 358.352 387.425,357.200 388.233,357.200 388.434 C 357.200 388.635,356.875 388.800,356.478 388.800 C 356.080 388.800,355.145 389.250,354.400 389.800 C 353.655 390.350,352.744 390.800,352.376 390.800 C 352.009 390.800,351.279 391.137,350.754 391.548 C 350.229 391.959,349.234 392.419,348.541 392.571 C 347.849 392.722,346.966 393.195,346.579 393.623 C 346.124 394.126,345.354 394.400,344.392 394.400 C 343.514 394.400,342.493 394.726,341.891 395.200 C 341.331 395.640,340.362 396.001,339.737 396.002 C 338.247 396.005,335.600 396.748,335.600 397.164 C 335.600 397.344,333.935 397.615,331.900 397.767 C 327.182 398.119,323.508 398.859,323.297 399.500 C 323.044 400.271,326.791 400.165,327.361 399.386 C 327.668 398.966,329.005 398.648,331.571 398.382 C 333.639 398.168,335.887 397.715,336.566 397.376 C 337.245 397.037,338.610 396.655,339.600 396.528 C 340.590 396.401,342.030 395.972,342.800 395.576 C 343.570 395.180,344.857 394.748,345.660 394.617 C 346.463 394.486,347.340 394.114,347.609 393.789 C 347.878 393.465,348.306 393.200,348.560 393.200 C 348.813 393.200,350.996 392.202,353.411 390.983 C 371.788 381.702,383.850 369.182,392.507 350.400 C 392.964 349.410,393.666 347.945,394.069 347.146 C 394.471 346.346,394.800 345.393,394.800 345.030 C 394.800 344.666,395.160 343.662,395.600 342.800 C 396.040 341.938,396.400 340.781,396.400 340.231 C 396.400 339.680,396.770 338.292,397.222 337.145 C 397.673 335.999,398.140 333.877,398.258 332.431 C 398.502 329.435,399.089 327.200,399.631 327.200 C 399.834 327.200,400.000 326.300,400.000 325.200 C 400.000 322.915,399.487 322.602,398.830 324.487 " stroke="none" fill="#636363" fill-rule="evenodd"></path></g></svg>